bicep_curl
version=1
nRows=12
nColumns=17
inDegrees=yes

# SIMM Motion File Header:
name bicep_curl
datacolumns 17
datarows 12
otherdata 1
range 0.03 0.03686703999999999676
endheader
time	/jointset/r_shoulder/r_shoulder_elev/value	/jointset/r_shoulder/r_shoulder_elev/speed	/jointset/r_elbow/r_elbow_flex/value	/jointset/r_elbow/r_elbow_flex/speed	/forceset/TRIlong/activation	/forceset/TRIlong/fiber_length	/forceset/TRIlat/activation	/forceset/TRIlat/fiber_length	/forceset/TRImed/activation	/forceset/TRImed/fiber_length	/forceset/BIClong/activation	/forceset/BIClong/fiber_length	/forceset/BICshort/activation	/forceset/BICshort/fiber_length	/forceset/BRA/activation	/forceset/BRA/fiber_length
0.03	-0.00151260857914537	-0.11811868721299	7.79943095805297	259.954687908637	0.02423285	0.13916534	0.02	0.07317037	0.02	0.06823019	0.02	0.14713069	0.02	0.14649147	0.09403951	0.09133465
0.03000339000000000131	     -0.00151300904955867536	     -0.11814702713879329798	      7.80031220449689399743	    259.95471848095127143097	      0.02423284756499880302	      0.13916567590666836796	      0.02000000000000000042	      0.07317070663033925504	      0.02000000000000000042	      0.06823052508484742096	      0.02000000000000000042	      0.14713049672903596998	      0.02000000000000000042	      0.14649127111447535210	      0.09403945609003441786	      0.09133442952199892495
0.03000678000000000026	     -0.00151340961585895418	     -0.11817525775061128723	      7.80119345104382766465	    259.95474867937440421883	      0.02423265516279454398	      0.13916601183109042483	      0.02000000000000000042	      0.07317104327095669269	      0.02000000000000000042	      0.06823086018025659172	      0.02000360952246828250	      0.14713030342127106365	      0.02004742096469616305	      0.14649107178708148380	      0.09403675294908969695	      0.09133420904978889476
0.03002374999999999836	     -0.00151541623969917295	     -0.11831507357261804303	      7.80560488437879218537	    259.95489456099352310048	      0.02423169214967208288	      0.13916769390551234076	      0.02000000000000000042	      0.07317272861194773492	      0.02000000000000000042	      0.06823253778995017060	      0.02002164321320081333	      0.14712933475130310357	      0.02028425501789659496	      0.14649006089466065639	      0.09402322376099968293	      0.09133310554709039852
0.03010855999999999949	     -0.00152547905187833685	     -0.11897836294771969856	      7.82765168598230598462	    259.95549863885929653406	      0.02422688267551861147	      0.13917611142207625408	      0.02000000000000000042	      0.07318115486427342886	      0.02000000000000000042	      0.06824092546230431378	      0.02011089539644830837	      0.14712446969785084039	      0.02145425930394741915	      0.14648469350770945696	      0.09395567123245976426	      0.09132759455709985041
0.03053261000000000169	     -0.00157652365319634383	     -0.12162220024048814304	      7.93788606295330101403	    259.95612409409511656122	      0.02420291813506036255	      0.13921841176399496476	      0.02000000000000000042	      0.07322335036629634697	      0.02000000000000000042	      0.06828292706712504878	      0.02053605168493522967	      0.14709963069286194348	      0.02698144064407936166	      0.14645125839277661761	      0.09361944082049276916	      0.09130013130433807522
0.03157646000000000064	     -0.00170581530434187013	     -0.12604316959246356089	      8.20923833717841233693	    259.95007248632094842833	      0.02414451051379674917	      0.13932328922919420822	      0.02000000000000000042	      0.07332743966926764945	      0.02000000000000000042	      0.06838650811021991516	      0.02144703909597809113	      0.14703615562719968279	      0.03860596801210970652	      0.14634108588403879625	      0.09280253125228206390	      0.09123306493373366244
0.03262030999999999958	     -0.00183936416842912071	     -0.13016686793266563082	      8.48058303458978457456	    259.94294152130714792293	      0.02408692385684921278	      0.13942862468894551276	      0.02000000000000000042	      0.07343190163303106588	      0.02000000000000000042	      0.06849054737673299087	      0.02219401133188961955	      0.14697113084600749167	      0.04797631219650675544	      0.14621508662634866149	      0.09200065993689786337	      0.09116656393091016053
0.03359912999999999789	     -0.00196902866413746014	     -0.13520186259148922470	      8.73501838551375442421	    259.94006308962366347259	      0.02403366009094059022	      0.13952763205556195647	      0.02000000000000000042	      0.07353004099759541390	      0.02000000000000000042	      0.06858813833642234126	      0.02277225185304673424	      0.14690962628731471518	      0.05517764603367299875	      0.14609391729087031764	      0.09126211556518196155	      0.09110456516569261087
0.03457794000000000145	     -0.00210425503246378922	     -0.14149694563982762041	      8.98945036442953515632	    259.94123411269464440920	      0.02398109876261384638	      0.13962683553967403238	      0.02000000000000000042	      0.07362843214994602148	      0.02000000000000000042	      0.06868616449956502223	      0.02325295039200109964	      0.14684789283290194950	      0.06116243694272745224	      0.14597396191168834911	      0.09053625246854854480	      0.09104281869620575729
0.03555462000000000206	     -0.00224592027173719806	     -0.14896404054169046227	      9.24333164651756611363	    259.94604105359917411988	      0.02392934200209436216	      0.13972601288875863279	      0.02000000000000000042	      0.07372682047766249136	      0.02000000000000000042	      0.06878400857479284591	      0.02365197304045536797	      0.14678613437830151378	      0.06615432115434470572	      0.14585713421085808039	      0.08982434676666492535	      0.09098139360873969128
0.03686703999999999676	     -0.00244859047639972441	     -0.16030620769842265916	      9.58449592154036267289	    259.95596453464236219588	      0.02386086295505185015	      0.13985955775419448011	      0.02000000000000000042	      0.07385930355144444681	      0.02000000000000000042	      0.06891616709386841344	      0.02408495968405283474	      0.14670287330773545964	      0.07162952053442739331	      0.14570572629241920759	      0.08888675541960268378	      0.09089907635468633118
